<?xml version="1.0" encoding="UTF-8" standalone="no"?>
<svg
   version="1.1"
   id="Layer_1"
   x="0px"
   y="0px"
   width="100%"
   viewBox="0 0 1350 1370"
   enable-background="new 0 0 1350 1370"
   xml:space="preserve"
   sodipodi:docname="logo.svg"
   inkscape:version="1.3.2 (091e20e, 2023-11-25)"
   xmlns:inkscape="http://www.inkscape.org/namespaces/inkscape"
   xmlns:sodipodi="http://sodipodi.sourceforge.net/DTD/sodipodi-0.dtd"
   xmlns="http://www.w3.org/2000/svg"
   xmlns:svg="http://www.w3.org/2000/svg"><defs
   id="defs2" /><sodipodi:namedview
   id="namedview2"
   pagecolor="#ffffff"
   bordercolor="#000000"
   borderopacity="0.25"
   inkscape:showpageshadow="2"
   inkscape:pageopacity="0.0"
   inkscape:pagecheckerboard="0"
   inkscape:deskcolor="#d1d1d1"
   inkscape:zoom="0.58599667"
   inkscape:cx="569.11586"
   inkscape:cy="791.81337"
   inkscape:window-width="1728"
   inkscape:window-height="1051"
   inkscape:window-x="0"
   inkscape:window-y="38"
   inkscape:window-maximized="0"
   inkscape:current-layer="Layer_1" />
<path
   fill="#007aff"
   opacity="1"
   stroke="none"
   d="m 1093.1262,1175.0123 c -58.1012,68.494 -156.61166,100.1658 -242.84314,71.0732 -78.9221,-23.0793 -123.23107,-96.8766 -183.24619,-146.8909 C 581.8297,1013.2574 496.85616,926.94537 410.82289,841.8174 327.54106,760.80938 332.38201,612.77285 419.74331,536.52306 507.0191,450.38455 593.46019,363.27007 679.75671,276.39267 c 48.27881,-42.33967 87.81163,-95.37313 140.91722,-132.0771 80.22079,-50.383887 193.13767,-32.5372 255.08577,38.8564 65.7814,52.45653 103.986,142.83268 77.1964,225.38792 -22.0185,75.23633 -91.1752,120.09988 -141.621,175.40178 -31.1232,34.52543 -72.16112,63.09187 -95.44925,103.13502 -14.7535,28.73904 56.42661,55.09406 37.39149,66.60814 -29.40217,5.0339 -61.25691,-9.56995 -69.39688,-40.5558 C 867.71322,665.08481 914.371,632.86192 943.28202,602.85404 996.03388,547.7445 1055.4053,498.27984 1102.2876,438.03031 1148.0833,368.73007 1126.143,270.50301 1063.025,218.67356 1017.7627,164.24127 941.2766,132.77075 872.24005,158.43568 812.92974,178.20881 777.3551,232.83866 733.0824,273.08154 631.21243,375.6231 528.12432,476.58967 427.07984,580.08374 c -60.44679,68.82599 -53.53676,183.15421 15.26603,244.0202 118.60942,117.48488 235.29592,236.81706 354.42526,353.52606 73.98169,64.9862 196.6698,56.8287 261.86937,-17.0947 74.6286,-62.784 91.1474,-184.35161 29.191,-261.41689 -57.4966,-78.78062 -178.44022,-98.29477 -257.48273,-40.29363 -51.03351,36.19222 -80.34209,99.67726 -73.42631,162.23342 -47.37768,-17.2013 -32.11338,-85.42644 -8.66073,-119.54012 54.8623,-109.2232 207.92515,-143.14081 308.15927,-77.1021 99.3293,58.81388 135.0994,198.61552 77.0046,298.09522 -10.8212,19.2726 -24.3198,37.2238 -40.2994,52.5011 z"
   id="path1" />
<path
   fill="#64B5F6"
   opacity="1.000000"
   stroke="none"
   d=" M657.658264,1088.020996   C658.072021,1088.380493 658.243835,1088.661011 658.657227,1089.020020   C659.070801,1089.379272 659.242920,1089.660278 659.656738,1090.019775   C660.070557,1090.379272 660.242676,1090.660278 660.656494,1091.019775   C661.070374,1091.379395 661.242554,1091.660522 661.656372,1092.020020   C662.070251,1092.379639 662.242432,1092.660645 662.656250,1093.020264   C663.070129,1093.379761 663.242310,1093.660645 663.656128,1094.020264   C664.070007,1094.379761 664.242188,1094.660767 664.656128,1095.020386   C665.070007,1095.379883 665.242249,1095.660889 665.656128,1096.020508   C666.069824,1096.380005 666.242004,1096.661011 666.655762,1097.020508   C667.069580,1097.380127 667.241821,1097.661133 667.655762,1098.020752   C668.069580,1098.380371 668.241699,1098.661377 668.655457,1099.020996   C669.069214,1099.380615 669.241333,1099.661499 669.655090,1100.021240   C670.068909,1100.380737 670.241150,1100.661743 670.654907,1101.021362   C671.068787,1101.381104 671.241089,1101.661987 671.655029,1102.021484   C672.068970,1102.381104 672.241272,1102.661865 672.655151,1103.021362   C673.069153,1103.380859 673.241516,1103.661621 673.655640,1104.020874   C674.069763,1104.380127 674.242188,1104.661011 674.656494,1105.020020   C675.069580,1105.378418 675.240845,1105.658569 675.653320,1106.015869   C675.936890,1107.126465 675.979248,1108.160156 676.098877,1109.573242   C673.225769,1120.542847 670.385010,1131.153076 665.979614,1141.287354   C660.250671,1154.466309 653.004517,1166.725830 644.237061,1178.074707   C639.198364,1184.597046 633.876099,1190.895996 627.824524,1196.538574   C605.156250,1217.674683 579.214539,1232.824097 548.832581,1239.927734   C541.466858,1241.650146 534.100586,1243.314819 526.187439,1244.106812   C523.812866,1244.789062 521.759766,1244.399170 519.301636,1244.359619   C517.513977,1245.014160 516.028809,1245.010010 514.525024,1245.009399   C486.282288,1244.998413 458.039520,1245.005249 429.796814,1244.981323   C428.826233,1244.980469 427.855927,1244.698853 426.505432,1244.400391   C424.398071,1244.700073 422.643707,1244.449219 420.486511,1244.309814   C401.769501,1241.936157 384.105957,1237.479248 367.172913,1229.975952   C350.005432,1222.368896 334.903351,1211.960815 320.945648,1199.423950   C299.432800,1180.100830 284.571899,1156.634033 275.104095,1129.552124   C270.756592,1117.116455 267.885284,1104.380249 266.892578,1091.150513   C266.561829,1086.742920 266.123230,1082.324219 265.917419,1077.429688   C265.258575,1075.523682 265.511414,1074.005615 265.511353,1072.520630   C265.500031,808.340149 265.499359,544.159668 265.500275,279.979218   C265.500275,279.312592 265.511261,278.646301 265.695312,277.504669   C271.668793,188.310898 344.143158,118.858543 433.575043,116.915039   C437.808746,116.119888 441.623077,116.527771 445.415771,116.524048   C467.283234,116.502579 489.150848,116.444878 511.489166,116.690651   C528.016479,117.030228 543.870361,119.481003 559.027222,124.325928   C577.880066,130.352280 595.739319,138.949570 611.542786,151.205231   C633.737183,168.417038 651.355896,189.401184 663.297607,214.925064   C669.826294,228.879318 674.524597,243.454849 676.932739,258.708923   C677.744385,263.850433 678.344604,269.025299 679.115112,274.625977   C679.116882,276.092316 679.044983,277.117615 678.939697,278.528473   C678.623535,279.080383 678.340759,279.246704 677.977966,279.653748   C677.617737,280.067261 677.337585,280.240082 676.977661,280.653625   C676.617798,281.067230 676.337708,281.240051 675.977783,281.653625   C675.617859,282.067261 675.337769,282.240143 674.977783,282.653748   C674.617920,283.067352 674.337769,283.240265 673.977905,283.653931   C673.617981,284.067596 673.337891,284.240479 672.978027,284.654144   C672.618225,285.067780 672.338013,285.240631 671.978149,285.654297   C671.618286,286.067871 671.338135,286.240662 670.978271,286.654236   C670.618286,287.067810 670.338013,287.240570 669.978027,287.654114   C669.617981,288.067627 669.337769,288.240356 668.977783,288.653809   C668.617737,289.067322 668.337585,289.240082 667.977600,289.653625   C667.617676,290.067261 667.337524,290.240112 666.977661,290.653748   C666.617798,291.067444 666.337708,291.240326 665.977905,291.654053   C665.618042,292.067780 665.337952,292.240662 664.978149,292.654358   C664.618347,293.068024 664.338196,293.240845 663.978394,293.654510   C663.618530,294.068115 663.338318,294.240906 662.978394,294.654480   C662.618469,295.067963 662.338257,295.240692 661.978271,295.654175   C661.618225,296.067688 661.338074,296.240417 660.978027,296.653870   C660.617981,297.067352 660.337830,297.240112 659.977722,297.653564   C659.617676,298.067108 659.337524,298.239960 658.977661,298.653564   C658.617615,299.067474 658.337402,299.240601 657.977478,299.654724   C656.622314,300.712982 655.346863,301.530243 653.942261,302.658417   C649.215271,303.761536 647.578796,301.843323 647.914795,297.236725   C648.262207,292.474304 648.000732,287.667419 647.924072,282.414642   C647.175781,279.913025 647.614807,277.821777 647.644043,275.323944   C646.252319,266.900940 645.557678,258.766388 643.381653,250.894943   C637.989990,231.390991 629.094543,213.823730 615.975464,198.240158   C594.818054,173.108246 568.486389,157.093277 536.203491,150.774155   C534.097839,150.361984 532.073975,149.968231 529.519226,149.957321   C527.396301,149.046005 525.560974,149.734085 523.456909,149.314056   C521.338013,148.951935 519.576416,148.730759 517.455566,148.385529   C503.312408,148.811768 489.522888,148.421692 475.736237,148.479858   C460.114532,148.545761 444.492096,148.541687 428.385193,148.364716   C426.568970,149.088821 425.082458,149.026901 423.240997,149.096115   C421.188843,149.771774 419.447113,149.411011 417.309296,149.356598   C405.966888,150.906418 395.376709,153.785202 385.095673,157.835800   C370.990936,163.392914 358.214630,171.109528 346.524170,180.776474   C329.772247,194.628769 317.562958,211.769135 308.728241,231.493774   C303.851929,242.380844 300.938629,253.765900 298.788483,265.478638   C298.005463,269.744110 298.726013,274.021912 297.411499,278.536133   C297.747406,281.448730 297.388428,284.009369 297.499878,287.043884   C297.499878,547.906555 297.499725,808.281006 297.502380,1068.655396   C297.502411,1070.820679 297.453003,1072.986694 297.714233,1075.621582   C297.288940,1098.402588 302.539917,1119.424683 312.986847,1138.969238   C326.401672,1164.066162 345.466125,1183.722412 370.877167,1197.124634   C384.818146,1204.477417 399.551636,1209.213867 414.942108,1211.830688   C419.042816,1212.527954 423.317566,1213.125000 427.656891,1213.099731   C458.806061,1212.917236 489.968262,1213.530273 521.102234,1212.825439   C535.363098,1212.502808 549.165344,1208.134277 562.524292,1202.916748   C575.012634,1198.039307 586.280518,1191.005615 596.709351,1182.746094   C609.414124,1172.683960 619.749634,1160.448364 628.262329,1146.604004   C636.695740,1132.888672 642.092102,1118.038208 645.649780,1102.458862   C646.592590,1098.330078 646.867737,1094.048950 647.598511,1089.473145   C647.299011,1087.393677 647.552063,1085.651123 647.685120,1083.507935   C647.892639,1082.372070 647.957886,1081.647095 648.026001,1080.556641   C648.445190,1080.150391 648.861511,1080.109497 649.591187,1080.087158   C650.075562,1080.384766 650.246521,1080.664062 650.657715,1081.020996   C651.070312,1081.379639 651.242615,1081.660400 651.656372,1082.020020   C652.070190,1082.379517 652.242554,1082.660400 652.656372,1083.019897   C653.070251,1083.379517 653.242554,1083.660400 653.656494,1084.020020   C654.070374,1084.379517 654.242676,1084.660400 654.656616,1085.019897   C655.070435,1085.379395 655.242737,1085.660278 655.656616,1086.019775   C656.070557,1086.379272 656.242798,1086.660278 656.656738,1087.019653   C657.070984,1087.379395 657.243652,1087.660645 657.658264,1088.020996  z"
   id="path2" />
</svg>
